# xmcd
#
# Track frame offsets:
#	150
#	17432
#	32951
#	54203
#	78657
#	101276
#	121318
#	138029
#	151030
#	173614
#	197693
#	216415
#	234734
#	253445
#
# Disc length: 3615 seconds
#
# Revision: 0
# Processed by: cddbd v1.5.2PL0 Copyright (c) Steve Scherf et al.
# Submitted via: FairStars CD Ripper 1.30
#
DISCID=b20e1d0e
DTITLE=Joe - Signature
DYEAR=2009
DGENRE=R&B
TTITLE0=Majic
TTITLE1=Sex Girl
TTITLE2=Very Special Friend
TTITLE3=Friends Don't Let Friends
TTITLE4=Worse Case Scenaario
TTITLE5=Wanna Be Your Lover
TTITLE6=Miss My Baby
TTITLE7=Come Get This
TTITLE8=Metaphor
TTITLE9=Love's Greatest Episode
TTITLE10=Sensitive Lover
TTITLE11=Change
TTITLE12=Bonus Track 1
TTITLE13=Bonus Track 2
EXTD=
EXTT0=
EXTT1=
EXTT2=
EXTT3=
EXTT4=
EXTT5=
EXTT6=
EXTT7=
EXTT8=
EXTT9=
EXTT10=
EXTT11=
EXTT12=
EXTT13=
PLAYORDER=
